<?xml version="1.0" standalone="no"?>
<!DOCTYPE svg PUBLIC "-//W3C//DTD SVG 1.1//EN" "http://www.w3.org/Graphics/SVG/1.1/DTD/svg11.dtd" >
<svg xmlns="http://www.w3.org/2000/svg">
<metadata>
This is a custom SVG webfont generated by Font Squirrel.
Copyright   : Copyright c 2011 by Tipple Type All rights reserved
Designer    : Tipple Type
Foundry     : Tipple Type
Foundry URL : httpwwwlosttypecom
</metadata>
<defs>
<font id="QuaverSansRegular" horiz-adv-x="204" >
<font-face units-per-em="2048" ascent="1434" descent="-614" />
<missing-glyph horiz-adv-x="409" />
<glyph unicode=" "  horiz-adv-x="409" />
<glyph unicode="&#x09;" horiz-adv-x="409" />
<glyph unicode="&#xa0;" horiz-adv-x="409" />
<glyph unicode="!" d="M41 61.5q0 26.5 17.5 44t44 17.5t44 -17.5t17.5 -44t-17.5 -44t-44 -17.5t-44 17.5t-17.5 44zM51 1270h103l-21 -1024h-61z" />
<glyph unicode="&#x22;" horiz-adv-x="397" d="M41 1372q0 27 17.5 44.5t44 17.5t44 -17.5t17.5 -44t-12.5 -65.5t-24.5 -64l-10 -24h-31q-45 92 -45 153zM233 1372q0 27 17.5 44.5t44.5 17.5t44 -17.5t17 -44t-12 -65.5t-25 -64l-10 -24h-30q-46 92 -46 153z" />
<glyph unicode="#" horiz-adv-x="1116" d="M41 328l29 123h204l76 327h-205l29 123h205l78 328h82l-78 -328h327l78 328h82l-78 -328h205l-28 -123h-205l-76 -327h205l-29 -123h-205l-75 -328h-82l75 328h-327l-76 -328h-82l76 328h-205zM356 451h328l76 327h-328z" />
<glyph unicode="$" horiz-adv-x="1026" d="M43 387h78q0 -123 78 -205q88 -90 254 -102v584q-156 49 -232 92q-139 82 -139 209t88 204q100 92 283 101v84h82v-82q106 -6 174 -35q82 -31 133 -92q86 -96 86 -240h-76q0 27 -4 54.5t-23.5 70.5t-51.5 76t-94.5 58.5t-143.5 29.5v-477q201 -59 294 -117 q76 -47 111 -102q45 -63 45 -150q0 -145 -88 -231q-55 -55 -149 -84q-88 -27 -213 -31v-82h-82v84q-203 12 -312 127q-98 104 -98 256zM158 965q0 -78 75.5 -127.5t219.5 -94.5v451q-92 -6 -157 -32.5t-91.5 -65.5t-36.5 -69.5t-10 -61.5zM535 80q217 2 309 92q66 61 65 176 q0 111 -121 187q-76 47 -253 102v-557z" />
<glyph unicode="%" horiz-adv-x="1105" d="M2 1104q0 145 72.5 236.5t189.5 91.5t190.5 -91.5t73.5 -239t-73.5 -237.5t-190.5 -90t-189.5 90t-72.5 240zM41 41l956 1393l68 -41l-963 -1393zM45 1102q0 -131 59.5 -208t160 -77t159.5 78t59 207q0 131 -60.5 207.5t-158.5 76.5q-98 2 -158.5 -75.5t-60.5 -208.5z M582 332q0 145 72.5 236t189.5 91t190.5 -91t73.5 -238.5t-73.5 -237.5t-190.5 -90t-189.5 91.5t-72.5 238.5zM625 330q0 -131 59 -208t159.5 -77t160 78t59.5 207q0 131 -60.5 207.5t-158.5 76.5q-98 2 -158.5 -75.5t-60.5 -208.5z" />
<glyph unicode="&#x26;" horiz-adv-x="952" d="M51 430q0 176 107 277q57 55 149 88q-113 76 -112 231q0 115 78.5 180.5t187 65.5t187.5 -65.5t79 -180.5h-82q0 86 -60.5 125t-124 39t-124 -39t-60.5 -125q0 -125 99 -178q53 -27 104 -27h2v-82h-4q-166 0 -262 -92q-82 -76 -82 -217q0 -152 98.5 -249t249.5 -97 q158 0 253 78t95 209q0 86 -38 137q-37 47 -105 47q-55 0 -89 -34t-34 -89h-82q0 90 57.5 147.5t147.5 57.5q102 0 163.5 -72.5t61.5 -193.5q0 -166 -117.5 -267.5t-312.5 -101.5q-182 0 -303 117q-127 123 -127 311z" />
<glyph unicode="'" d="M41 1372q0 27 17.5 44.5t44 17.5t44 -17.5t17.5 -44t-12.5 -65.5t-24.5 -64l-10 -24h-31q-45 92 -45 153z" />
<glyph unicode="(" horiz-adv-x="534" d="M61 614q0 487 285 725q86 72 158 95v-66q-193 -86 -277 -297t-84 -457q0 -541 361 -743v-59l-26 10q-15 6 -61 34.5t-88 65.5t-93.5 103.5t-87 144.5t-61.5 194.5t-26 249.5z" />
<glyph unicode=")" horiz-adv-x="534" d="M31 -129q360 203 360 743q0 246 -84 457t-276 297v66q18 -6 48 -19.5t105.5 -74t134 -143.5t106.5 -237.5t48 -345.5q0 -182 -45 -331.5t-110.5 -233.5t-131 -141.5t-110.5 -75.5l-45 -20v59z" />
<glyph unicode="*" horiz-adv-x="505" d="M41 1102l168 65l-168 64l51 88l137 -111l-24 174h98l-24 -174l137 111l49 -88l-166 -64l166 -65l-49 -86l-137 110l24 -174h-98l24 174l-137 -110z" />
<glyph unicode="+" horiz-adv-x="614" d="M41 512v82h225v225h82v-225h225v-82h-225v-225h-82v225h-225z" />
<glyph unicode="," horiz-adv-x="184" d="M41 -49q25 31 25 61q-25 8 -25 41q0 53 51 53t51 -53q0 -43 -28.5 -76.5t-59.5 -50.5z" />
<glyph unicode="-" horiz-adv-x="798" d="M0 532v82h799v-82h-799z" />
<glyph unicode="." horiz-adv-x="192" d="M41 55.5q0 20.5 17.5 38t37.5 17.5q23 0 39.5 -16.5t16.5 -39.5q0 -20 -17.5 -37.5t-38 -17.5t-38 17.5t-17.5 38z" />
<glyph unicode="/" horiz-adv-x="718" d="M41 0l518 1434h119l-518 -1434h-119z" />
<glyph unicode="0" horiz-adv-x="1064" d="M41 618q0 270 137 440.5t354 170.5q219 0 355.5 -169t136.5 -444q0 -276 -136 -445t-355.5 -169t-355.5 170t-136 446zM123 616q0 -246 109.5 -389t299.5 -143q186 0 298 146.5t112 385.5q0 244 -111.5 387.5t-298.5 143.5q-184 2 -296.5 -142.5t-112.5 -388.5z" />
<glyph unicode="1" horiz-adv-x="409" d="M61 1024v94l205 111h82v-1229h-82v1126z" />
<glyph unicode="2" horiz-adv-x="819" d="M51 0v82q0 76 96.5 193.5t211 222t211 219t96.5 184.5q0 246 -267 246q-88 0 -144 -23.5t-74.5 -63.5t-22.5 -61.5t-4 -50.5v-6h-82q0 43 13 87t45 92t101.5 78t167.5 30q61 0 116.5 -14.5t111 -48t88.5 -101.5t33 -164q0 -80 -63.5 -174t-154 -180t-180.5 -169 t-153.5 -162t-63.5 -134h635v-82h-717z" />
<glyph unicode="3" horiz-adv-x="868" d="M51 293v10h80v-10q2 -70 66.5 -141.5t205.5 -71.5q121 0 227.5 78t106.5 215q0 123 -129 207q-104 66 -205 65h-10v10v35v25v10h10q72 0 150 74q82 76 82 157q0 86 -64.5 139.5t-167.5 53.5q-94 0 -165 -45q-66 -43 -66 -86v-10h-80v10q0 86 86 147q92 63 225 64 q121 0 203 -51q111 -72 111 -222q0 -80 -49.5 -150.5t-102.5 -107.5q76 -31 140 -84q113 -100 112 -241q0 -178 -135 -283q-117 -90 -279 -90q-180 0 -276 102q-76 82 -76 191z" />
<glyph unicode="4" horiz-adv-x="952" d="M51 471v102l533 656h102v-676h225v-82h-225v-471h-82v471h-553zM137 553h467v563z" />
<glyph unicode="5" horiz-adv-x="921" d="M51 287h82q0 -76 94.5 -140.5t212.5 -64.5q162 0 255 89t93 239q0 143 -96 235t-252 92q-57 0 -118.5 -15t-94.5 -30l-32 -16h-82v553h614v-82h-532v-369q92 41 245 41q195 0 312.5 -118.5t117.5 -290.5q0 -176 -114.5 -293t-315.5 -117q-188 0 -288.5 94.5t-100.5 192.5 z" />
<glyph unicode="6" horiz-adv-x="925" d="M51 614q0 281 118 448t292 167q98 0 175 -31t118 -76t60.5 -86t19.5 -71h-82q0 4 -5.5 20t-25 45t-49 54.5t-86 44t-125.5 18.5q-233 0 -305 -316q-27 -125 -23 -237q0 8 4 20.5t24.5 44t54.5 56t103.5 44t161.5 19.5q168 0 278.5 -110.5t112.5 -280.5 q4 -160 -111.5 -273.5t-281.5 -113.5q-231 0 -329.5 150.5t-98.5 463.5zM154 389q0 -129 86 -218t239 -89q135 0 222 91t87 216t-86 216t-221 91q-168 0 -247.5 -85t-79.5 -222z" />
<glyph unicode="7" horiz-adv-x="890" d="M51 1147v82h799v-80l-4 -8l-615 -1139h-92l617 1145h-705z" />
<glyph unicode="8" horiz-adv-x="921" d="M41 336q0 80 34 146.5t82 104.5t96 64.5t83 36.5l33 8q-10 2 -26.5 7.5t-58.5 26t-75 50t-59.5 84t-26.5 119.5q-2 111 82 178.5t245.5 67.5t245.5 -69.5t84 -178.5q2 -184 -186 -264l-66 -21q14 -2 38 -8t84.5 -32.5t107.5 -61.5t85 -98.5t38 -141.5q0 -164 -111 -259 t-319 -95q-184 0 -297 81t-113 255zM123 336q0 -76 35 -130t90 -79t104 -35t99 -10q53 0 107 12t111.5 40t93.5 85t36 135q0 176 -244 269q-57 23 -104 30l-36 -10q-22 -6 -78 -32.5t-99 -59.5t-79 -91t-36 -124zM203 979q0 -84 62.5 -143.5t123.5 -77.5l62 -17 q10 2 26.5 6.5t59.5 22.5t76.5 43t60 70t26.5 98q0 92 -73.5 134t-175.5 42q-104 0 -176 -42t-72 -136z" />
<glyph unicode="9" horiz-adv-x="925" d="M53 842q-4 160 112 273.5t281 113.5q231 0 329.5 -150.5t98.5 -464.5q0 -281 -117.5 -447.5t-291.5 -166.5q-98 0 -175 30.5t-118 76t-60.5 86t-19.5 71.5h82q0 -4 5 -20.5t24.5 -45t49.5 -54t86 -44t126 -18.5q233 0 305 315q27 125 23 238q0 -8 -4.5 -20.5t-25 -44 t-54 -56.5t-103 -44t-162.5 -19q-168 0 -278.5 110.5t-112.5 280.5zM137 840q0 -125 86 -216.5t221 -91.5q168 0 248 85t80 223q0 129 -86 218t-240 89q-135 0 -222 -91t-87 -216z" />
<glyph unicode=":" horiz-adv-x="196" d="M41 636.5q0 20.5 17.5 38t37.5 17.5q23 0 39.5 -16.5t16.5 -38.5q0 -20 -17.5 -37.5t-38 -17.5t-38 17t-17.5 37.5zM45 55.5q0 20.5 17.5 38t37.5 17.5q23 0 39.5 -16.5t16.5 -39.5q0 -20 -17.5 -37.5t-38 -17.5t-38 17.5t-17.5 38z" />
<glyph unicode=";" horiz-adv-x="192" d="M41 49q0 53 51 53t51 -53q0 -43 -28.5 -76.5t-59.5 -50.5l-14 25q25 31 25 61q-25 8 -25 41zM41 645.5q0 20.5 17.5 37.5t37.5 17q23 0 39.5 -16t16.5 -39q0 -20 -17.5 -37.5t-38 -17.5t-38 17.5t-17.5 38z" />
<glyph unicode="&#x3c;" horiz-adv-x="757" d="M41 471v82l676 471v-82l-615 -430l615 -430v-82z" />
<glyph unicode="=" horiz-adv-x="724" d="M41 313v82h643v-82h-643zM41 723v82h643v-82h-643z" />
<glyph unicode="&#x3e;" horiz-adv-x="757" d="M41 0v82l614 430l-614 430v82l676 -471v-82z" />
<glyph unicode="?" horiz-adv-x="788" d="M41 1042q0 86 76 157t231 71q39 0 81 -6.5t99.5 -30t101.5 -61t75.5 -108.5t31.5 -163q0 -88 -19.5 -158.5t-46 -112.5t-68.5 -77t-70.5 -49.5t-71.5 -31.5t-51 -21v-205h-103v286q14 6 59.5 20.5t73 26t68.5 39t65.5 61.5t43 91t18.5 131q0 88 -30 149.5t-78 89t-91 38 t-88 10.5q-68 0 -147.5 -42t-79.5 -104h-80zM293 61.5q0 26.5 17.5 44t44 17.5t44 -17.5t17.5 -44t-17.5 -44t-44 -17.5t-44 17.5t-17.5 44z" />
<glyph unicode="@" horiz-adv-x="1353" d="M73.5 221q-57.5 219 35.5 420q88 193 280.5 293t401.5 61q217 -39 361 -211t148 -391q4 -248 -131 -315q-98 -49 -187 0t-112 153q-47 -92 -135 -139t-182 -16q-84 27 -132 105.5t-50 170.5t41 177t118 133q90 55 188.5 28.5t151.5 -117.5q2 20 7.5 58.5t7.5 54.5l82 -16 l-13 -43q-20 -90 -29.5 -177.5t11 -183.5t82.5 -125q68 -33 117 10.5t68.5 109t17.5 124.5q-2 176 -106.5 315.5t-271.5 194.5t-337 0q-123 -41 -213 -136t-128 -211t-21.5 -246t94.5 -236q145 -201 396 -221.5t427 153.5l59 -59q-162 -162 -393 -180.5t-416 114.5 q-180 129 -237.5 348zM461.5 278.5q27.5 -104.5 113.5 -139.5q74 -29 145 13.5t107 107.5q16 31 24.5 97.5t4.5 107.5q-4 33 -31.5 76t-62.5 65q-84 53 -169 3t-122 -144q-37 -82 -9.5 -186.5zM1300 393v2v-2zM1300 395zM1300 395zM1300 395v2v-2zM1300 397v2v-2zM1300 397z M1300 399v2v-2zM1300 399zM1300 401zM1300 401v2v-2zM1300 403v3v-3zM1300 406zM1300 406v2v-2zM1300 408v2v-2zM1300 408zM1300 410v2v-2zM1300 412v2v-2zM1300 414zM1300 414zM1300 414zM1300 414z" />
<glyph unicode="A" horiz-adv-x="1247" d="M41 0l522 1270h82l561 -1270h-86l-194 438h-619l-182 -438h-84zM334 502h563l-293 665z" />
<glyph unicode="B" horiz-adv-x="890" d="M61 0v78v1114v78h78h232q190 0 288.5 -90t98.5 -217q0 -59 -20.5 -109.5t-49.5 -79.5t-57.5 -48t-48.5 -26l-21 -8q12 -2 30.5 -6t67 -26.5t85 -54.5t66.5 -96.5t30 -143.5q0 -154 -113 -259.5t-319 -105.5h-269h-78zM143 82h267q176 0 260 84t84 203q0 74 -33 127 t-76 78.5t-103.5 41t-95 17.5t-73.5 2h-19h-2h-209v-553zM143 713h230q29 0 59.5 3t77.5 18.5t82 40t60.5 72.5t25.5 111q0 94 -74 162t-229 68h-232v-475z" />
<glyph unicode="C" horiz-adv-x="1161" d="M51 634.5q0 276.5 160 456t418 179.5q96 0 181 -31t137 -73t91 -89t54.5 -76.5t17.5 -37.5l-74 -23q-29 70 -102 137q-123 111 -305 111q-221 0 -358.5 -153.5t-137.5 -399.5t137.5 -399.5t358.5 -153.5q186 0 305 111q74 68 102 137l74 -23q-2 -8 -17.5 -37.5t-54.5 -77 t-91 -89.5t-137 -72.5t-181 -30.5q-258 0 -418 179t-160 455.5z" />
<glyph unicode="D" horiz-adv-x="1095" d="M61 0v1270h349q283 0 458.5 -164t175.5 -451q0 -291 -178 -473t-456 -182h-349zM143 82h267q240 0 396.5 157.5t156.5 415.5q0 250 -152 391.5t-401 141.5h-267v-1106z" />
<glyph unicode="E" horiz-adv-x="892" d="M61 0v1270h732v-68h-648v-500h609v-67h-609v-567h686v-68h-770z" />
<glyph unicode="F" horiz-adv-x="843" d="M61 0v1270h732v-68h-648v-500h609v-67h-609v-635h-84z" />
<glyph unicode="G" horiz-adv-x="1218" d="M51 634.5q0 276.5 169 456t439 179.5q102 0 191.5 -31t145 -73t96.5 -89t57 -76.5t18 -37.5l-77 -23q-31 70 -109 137q-129 111 -322 111q-233 0 -377.5 -153.5t-144.5 -399.5t144.5 -399.5t377.5 -153.5q197 0 322 111q78 68 109 137v-2v106h-220v66h297v-39v-37v-117 q-2 -8 -18 -37.5t-57 -77t-96.5 -89.5t-144.5 -72.5t-192 -30.5q-270 0 -439 179t-169 455.5z" />
<glyph unicode="H" horiz-adv-x="983" d="M61 0v1270h82v-563h697v563h82v-1270h-82v635h-697v-635h-82z" />
<glyph unicode="I" d="M61 0v1270h82v-1270h-82z" />
<glyph unicode="J" horiz-adv-x="972" d="M51 328h82q0 -90 84 -164q94 -82 244 -82q172 0 266 72q102 78 102 256v860h82v-860q0 -215 -123.5 -312.5t-326.5 -97.5q-178 0 -294 99.5t-116 228.5z" />
<glyph unicode="K" horiz-adv-x="1103" d="M61 0v1270h82v-611l738 611h123l-582 -484l635 -786h-107l-592 733l-215 -178v-555h-82z" />
<glyph unicode="L" horiz-adv-x="911" d="M61 0v1270h82v-1188h738v-82h-820z" />
<glyph unicode="M" horiz-adv-x="1290" d="M61 0v1270h82l519 -1153l485 1153h82v-1270h-80v1085l-451 -1083h-69l-486 1083v-1085h-82z" />
<glyph unicode="N" horiz-adv-x="1085" d="M61 0v1270h86l799 -1147v1147h78v-1270h-86l-799 1147v-1147h-78z" />
<glyph unicode="O" horiz-adv-x="1228" d="M41 635q0 299 166 467t407 168q250 0 412 -158t162 -477.5t-162 -477t-412 -157.5q-242 0 -407.5 168t-165.5 467zM123 635q0 -270 143.5 -411.5t347.5 -141.5q55 0 109.5 8t127.5 42t126 90.5t91 163t38 249.5t-38 249.5t-91 163t-126 90t-127 42t-110 8.5 q-205 0 -348 -141.5t-143 -411.5z" />
<glyph unicode="P" horiz-adv-x="788" d="M61 0v1270h310q102 0 178 -33t114.5 -86t56 -105.5t17.5 -103.5t-18.5 -103.5t-57 -105.5t-114.5 -86t-178 -33h-226v-614h-82zM143 696h226q154 0 229 88q57 68 57 158t-55 158q-76 88 -229 88h-228v-492z" />
<glyph unicode="Q" horiz-adv-x="1286" d="M51 633q0 299 176 468t422 169q121 0 225.5 -37t190.5 -110.5t135 -199.5t49 -290q0 -287 -151 -455q-121 -139 -256 -241q59 -18 196.5 -97.5t255.5 -81.5h8q100 0 169 53q73 54 94 95l49 -19q-4 -8 -11.5 -21t-35 -47t-61 -59.5t-90 -47t-120.5 -21.5q-104 0 -186 34.5 t-169 87t-169 74.5q-158 -102 -297 -102q-55 0 -88 24q-31 22 -31 50q0 58 55 88q52 29 142 28q113 0 186 -14q6 4 17.5 11.5t19.5 12.5t12 9h-2q31 23 39 29q-86 -25 -176 -25q-246 0 -422 169t-176 466zM129 633q0 -137 46 -248t121 -176.5t166 -99t187 -33.5 q209 0 365.5 144.5t156.5 412.5q0 147 -44 256.5t-103 165t-139 89.5t-132.5 41t-103.5 7q-96 0 -187 -34t-166 -100.5t-121 -176t-46 -248.5zM438 -125q-1 -4 -1 -8q0 -18 32 -23q8 -2 17.5 -2t19.5 2q74 14 160 68q-55 6 -101 6q-115 0 -127 -43z" />
<glyph unicode="R" horiz-adv-x="811" d="M61 0v1270h310q102 0 178 -33t114.5 -86t56 -105.5t17.5 -103.5q0 -84 -49 -171t-151 -128q25 -12 34 -20q68 -49 105 -121q41 -86 41 -195q0 -39 5 -78t13 -68.5t18.5 -55t20.5 -45t18.5 -33t14.5 -19.5l4 -8h-98q-78 113 -78 307q0 82 -27.5 143.5t-64.5 91t-86 48 t-77 21.5t-52 3h-185v-614h-82zM143 696h226q154 0 229 88q57 68 57 158t-55 158q-76 88 -229 88h-228v-492z" />
<glyph unicode="S" horiz-adv-x="1026" d="M43 385h78q-2 -2 0 -32.5t21.5 -82t56.5 -90.5q98 -102 305 -102q246 0 340 92q66 61 65 176q0 111 -121 186q-84 49 -290.5 115t-276.5 107q-139 82 -139 209t88 204q113 102 334 103q117 0 205 -35q82 -31 133 -92q86 -96 86 -240h-78q0 37 -10.5 76t-41 92t-106.5 87 t-188 34q-109 0 -184.5 -24.5t-107.5 -65.5t-43 -73t-11 -66q0 -37 21.5 -70t50 -54.5t85 -45t94 -37t111.5 -35.5q225 -72 309 -123q76 -47 111 -102q45 -63 45 -150q0 -145 -88 -231q-61 -57 -149 -84q-100 -31 -244 -31q-242 0 -363 129q-98 104 -98 256z" />
<glyph unicode="T" horiz-adv-x="1085" d="M51 1188v82h451h82h450v-82h-450v-1188h-82v1188h-451z" />
<glyph unicode="U" horiz-adv-x="1085" d="M51 532v738h82v-738q0 -451 451 -450q174 0 271 113.5t97 316.5v758h82v-758q0 -242 -124 -377t-326 -135q-268 0 -400.5 139t-132.5 393z" />
<glyph unicode="V" horiz-adv-x="1224" d="M31 1270h86l514 -1153l479 1153h84l-526 -1268h-70z" />
<glyph unicode="W" horiz-adv-x="1599" d="M31 1270h78l344 -1131l309 1131h76l346 -1131l309 1131h76l-346 -1270h-76l-344 1130l-311 -1130h-76z" />
<glyph unicode="X" horiz-adv-x="1130" d="M41 1270h100l424 -584l424 584h101l-474 -654l461 -634h-102l-410 565l-411 -565h-101l461 634z" />
<glyph unicode="Y" horiz-adv-x="946" d="M31 1270h78l364 -598l365 598h77l-403 -684v-586h-78v586z" />
<glyph unicode="Z" horiz-adv-x="985" d="M41 0v78l815 1114h-758v78h846v-78l-809 -1114h809v-78h-903z" />
<glyph unicode="[" horiz-adv-x="407" d="M80 -205v1639h246v-103h-123v-1433h123v-103h-246z" />
<glyph unicode="\" horiz-adv-x="606" d="M55 1434h119l336 -1434h-119z" />
<glyph unicode="]" horiz-adv-x="356" d="M63 -102h123v1433h-123v103h246v-1639h-246v103z" />
<glyph unicode="^" horiz-adv-x="983" d="M41 553l416 676h82l403 -676h-82l-362 614l-375 -614h-82z" />
<glyph unicode="_" horiz-adv-x="798" d="M0 -84h799v-82h-799v82z" />
<glyph unicode="`" horiz-adv-x="307" d="M41 1061q0 12 34 47t48 35l143 -185l-20 -20z" />
<glyph unicode="a" horiz-adv-x="778" d="M61 266q0 127 92.5 207t256.5 80q43 0 85 -5t68.5 -12.5t48 -13.5t23.5 -6q0 221 -246 221q-55 0 -97 -11t-65.5 -26.5t-39 -34t-19.5 -30.5t-4 -21h-82q0 84 81 144.5t226 60.5q193 0 259.5 -92t66.5 -317q0 -197 1 -298.5t1 -111.5h-82q0 100 -2 123q-4 -4 -10.5 -13.5 t-30 -30t-51 -36.5t-74.5 -29.5t-98 -13.5q-143 0 -225.5 66.5t-82.5 199.5zM143 266q0 -184 226 -184q111 0 187.5 55.5t76.5 108.5q2 188 2 196q-102 29 -225 29q-86 0 -144.5 -22.5t-82 -59.5t-32 -64.5t-8.5 -58.5z" />
<glyph unicode="b" horiz-adv-x="851" d="M61 0v1434h82v-820q20 63 94 134t193 71q156 0 268.5 -126t112.5 -283.5t-112.5 -283.5t-268.5 -126q-109 0 -193.5 72.5t-93.5 120.5v-193h-82zM156 406q0 -130 71 -220q94 -109 211 -108q119 0 213 108q72 88 72 223.5t-72 223.5q-100 111 -213 110q-111 0 -211 -110 q-71 -87 -71 -227z" />
<glyph unicode="c" horiz-adv-x="755" d="M41 410q0 190 109.5 299.5t257.5 109.5q68 0 125 -23.5t88.5 -56t54 -65.5t31.5 -56l8 -24h-82q-2 6 -7 15t-25.5 34t-44.5 44.5t-63.5 34.5t-84.5 15q-119 -2 -202 -89t-83 -238q0 -160 71 -245q69 -83 207 -83h7q143 0 217 111l8 12h82q-4 -8 -10.5 -22.5t-33 -49.5 t-58 -61.5t-87 -49t-118.5 -22.5q-172 0 -269.5 106.5t-97.5 303.5z" />
<glyph unicode="d" horiz-adv-x="851" d="M41 409.5q0 157.5 112.5 283.5t268.5 126q119 0 192.5 -70.5t94.5 -134.5v820h82v-1434h-82v193q-8 -47 -93.5 -120t-193.5 -73q-156 0 -268.5 126t-112.5 283.5zM129 409.5q0 -135.5 72 -223.5q94 -109 213 -108q117 0 211 108q72 90 71 220q0 140 -71 227 q-100 111 -211 110q-113 0 -213 -110q-72 -88 -72 -223.5z" />
<glyph unicode="e" horiz-adv-x="759" d="M43 418q0 206 97 303q99 98 247 98q127 0 229.5 -96t102.5 -293h-598q0 -68 14.5 -125t45 -109.5t90 -83t141.5 -30.5q127 0 219 115l6 8h82q-4 -8 -10.5 -22.5t-33 -49.5t-58 -61.5t-87 -49t-118.5 -22.5q-170 0 -269 106q-100 109 -100 312zM123 500h514 q0 102 -67.5 173.5t-196.5 71.5q-125 0 -185.5 -75.5t-64.5 -169.5z" />
<glyph unicode="f" horiz-adv-x="518" d="M20 737v82h144v328q0 41 7 81t29.5 91t77 83t132.5 32q137 0 200 -82l-63 -58q-37 57 -137 58q-164 0 -164 -205v-328h225v-82h-225v-737h-82v737h-144z" />
<glyph unicode="g" horiz-adv-x="774" d="M-37 -295q0 55 26.5 101.5t63.5 73t75 45t65 26.5l26 6l74 -27q-10 -2 -26.5 -8t-59.5 -25.5t-76 -43t-59.5 -63.5t-26.5 -85q0 -90 82 -167t246 -77q150 0 238.5 60.5t88.5 165.5q0 90 -44 150.5t-109.5 85t-143 46t-143 34.5t-110 49t-44.5 91q0 72 78 117 q-137 82 -137 252q0 119 85 213t243 94h20h348v-82h-135q94 -88 94 -225q0 -139 -85 -223t-222 -84q-82 0 -155 26q-51 -27 -52 -88q0 -35 61.5 -56t148.5 -41.5t175.5 -53.5t148.5 -111t60 -194q0 -147 -115.5 -224t-293.5 -77q-182 0 -296 90t-114 229zM129 512 q0 -102 72.5 -163.5t193.5 -61.5q102 0 164 60.5t62 164.5q0 25 -7.5 52.5t-28 71.5t-74.5 72.5t-136 28.5q-129 0 -187.5 -72.5t-58.5 -152.5z" />
<glyph unicode="h" horiz-adv-x="706" d="M61 0v1434h82v-758q27 57 94.5 100t151.5 43q139 0 202.5 -87t63.5 -200v-532h-82v532q0 31 -6 60t-23.5 64.5t-57.5 58t-97 22.5q-121 0 -183.5 -71.5t-62.5 -141.5v-524h-82z" />
<glyph unicode="i" horiz-adv-x="233" d="M61 1062.5q0 20.5 17.5 38t38.5 17.5q23 0 39 -16.5t16 -38.5q0 -20 -17.5 -37.5t-38 -17.5t-38 17t-17.5 37.5zM74 4h82v815h-82v-815z" />
<glyph unicode="j" horiz-adv-x="233" d="M-416 -410h90q2 -10 9.5 -26.5t26 -40t55 -39.5t85.5 -16q225 0 226 272v1079h82v-1079q0 -354 -308 -354q-135 0 -200.5 69t-65.5 135zM61 1062.5q0 20.5 17.5 38t38 17.5t38 -17.5t17.5 -38t-17.5 -37.5t-38 -17t-38 17t-17.5 37.5z" />
<glyph unicode="k" horiz-adv-x="796" d="M61 0v1434h82v-963l453 348h135l-428 -327l473 -492h-114l-424 440l-95 -71v-369h-82z" />
<glyph unicode="l" d="M61 0v1434h82v-1434h-82z" />
<glyph unicode="m" horiz-adv-x="1218" d="M61 0v809h82v-133q27 57 94.5 100t151.5 43q104 0 165.5 -56t80.5 -128q23 57 92.5 120.5t173.5 63.5q139 0 202.5 -87t63.5 -200v-532h-82v532q0 31 -6 60t-23.5 64.5t-57.5 58t-97 22.5q-123 0 -184.5 -76.5t-61.5 -136.5v-524h-82v532q0 31 -6 60t-23.5 64.5t-57.5 58 t-97 22.5q-121 0 -183.5 -71.5t-62.5 -141.5v-524h-82z" />
<glyph unicode="n" horiz-adv-x="706" d="M61 0v809h82v-133q27 57 94.5 100t151.5 43q139 0 202.5 -87t63.5 -200v-532h-82v532q0 31 -6 60t-23.5 64.5t-57.5 58t-97 22.5q-121 0 -183.5 -71.5t-62.5 -141.5v-524h-82z" />
<glyph unicode="o" horiz-adv-x="860" d="M41 409.5q0 159.5 112.5 284.5t276.5 125t276.5 -125t112.5 -284.5t-112.5 -284.5t-276.5 -125t-276.5 125t-112.5 284.5zM131 409.5q0 -120.5 87 -228t212 -107.5t211 107.5t86 228t-86 227t-211 106.5t-212 -106.5t-87 -227z" />
<glyph unicode="p" horiz-adv-x="858" d="M61 -614v1433h82v-205q0 45 89.5 125t197.5 80q156 0 271.5 -126t115.5 -283.5t-115.5 -283.5t-271.5 -126q-121 0 -204 79t-83 126v-819h-82zM150 358q14 -92 77 -172q86 -98 203 -98q135 0 221 98q82 102 82 223t-82 224q-41 45 -102.5 71.5t-118.5 26.5 q-115 0 -203 -98q-63 -80 -77 -172v-103z" />
<glyph unicode="q" horiz-adv-x="839" d="M41 409.5q0 159.5 106.5 284.5t262.5 125q109 0 197.5 -80t88.5 -125v205h82v-1433h-82v819q0 -47 -83 -126t-203 -79q-156 0 -262.5 125t-106.5 284.5zM119 410q0 -127 84 -227.5t206.5 -100.5t206.5 100q63 78 80 174v107q-16 96 -80 174q-88 100 -206.5 100 t-206.5 -100q-84 -100 -84 -227z" />
<glyph unicode="r" horiz-adv-x="612" d="M61 0v809h82v-133q27 57 94.5 100t151.5 43q111 0 182 -65l-55 -62q-49 45 -127 45q-121 0 -183.5 -71.5t-62.5 -141.5v-524h-82z" />
<glyph unicode="s" horiz-adv-x="686" d="M31 205h86q0 -4 3 -13.5t17.5 -30t36 -36.5t64.5 -29.5t100 -13.5q76 0 150.5 36t74.5 120q0 61 -76.5 103t-169 63.5t-169 70.5t-76.5 125q0 111 85 165t181 54q266 0 266 -164h-86q2 8 1 22.5t-45 37t-136 22.5q-53 0 -91 -11t-55.5 -23.5t-26.5 -36t-10 -34.5t-1 -32 q0 -43 50 -73.5t122.5 -51t145.5 -45t123 -74t50 -118.5q0 -106 -84 -172t-223 -66q-121 0 -214 52.5t-93 152.5z" />
<glyph unicode="t" horiz-adv-x="430" d="M41 737v82h123v205h82v-205h143v-82h-143v-563q0 -92 73 -92q43 0 70 16v-75q-37 -23 -102 -23q-45 0 -84 39t-39 84v614h-123z" />
<glyph unicode="u" horiz-adv-x="706" d="M51 287v532h82v-532q0 -31 6 -59.5t23.5 -64.5t57.5 -58.5t97 -22.5q119 0 182.5 71.5t63.5 139.5v526h82v-821h-82v145q-27 -57 -94.5 -100t-151.5 -43q-139 0 -202.5 87t-63.5 200z" />
<glyph unicode="v" horiz-adv-x="778" d="M41 819h82l266 -696l266 696h82l-307 -819h-82z" />
<glyph unicode="w" horiz-adv-x="1269" d="M41 819h82l266 -696l205 696h82l205 -696l266 696h82l-307 -819h-82l-205 684l-205 -684h-82z" />
<glyph unicode="x" horiz-adv-x="798" d="M41 0l307 410l-307 409h102l256 -342l256 342h103l-307 -409l307 -410h-103l-256 342l-256 -342h-102z" />
<glyph unicode="y" horiz-adv-x="768" d="M-31 -614q29 51 166 336.5t187 394.5l-271 702h82l236 -622l297 622h82l-697 -1433h-82z" />
<glyph unicode="z" horiz-adv-x="679" d="M51 0v82l475 655h-473v82h576v-82l-475 -655h473v-82h-576z" />
<glyph unicode="{" horiz-adv-x="727" d="M61 594v41q8 0 20.5 3t44.5 20.5t56.5 43t44 77.5t19.5 122v60v10v73q0 201 98 295.5t311 94.5h41v-82h-41q-180 0 -253.5 -70t-73.5 -238v-143q0 -193 -121 -287q121 -94 121 -286v-103q0 -195 73 -274q74 -74 254 -74h41v-82h-41q-217 0 -313 100.5t-96 329.5v86v17v43 v-43q0 70 -19.5 122t-46 78.5t-53.5 42t-45 19.5z" />
<glyph unicode="|" horiz-adv-x="161" d="M41 -575v2048h80v-2048h-80z" />
<glyph unicode="}" horiz-adv-x="727" d="M31 -123h41q180 0 253.5 69.5t73.5 237.5v144q0 193 121 286q-121 94 -121 287v103q0 195 -73 274q-74 74 -254 74h-41v82h41q217 0 313 -100.5t96 -329.5v-86v-17v-43v43q0 -70 19.5 -122t46 -78.5t53.5 -42t47 -19.5l19 -4v-41q-8 0 -20.5 -3t-44.5 -20.5t-56.5 -43 t-44 -78t-19.5 -121.5v-60v-10v-74q0 -201 -98 -295t-311 -94h-41v82z" />
<glyph unicode="~" horiz-adv-x="856" d="M41 573q0 2 8 14.5t25.5 34t36.5 40.5q94 94 194 94q86 0 166 -80q43 -43 78 -43q47 0 93 43t69 80l104 -62q0 -14 -70 -88q-94 -94 -196 -94q-88 0 -164 80q-41 41 -80 41q-45 0 -93 -43t-67 -78z" />
<glyph unicode="&#xa1;" d="M41 1208.5q0 26.5 17.5 44t44 17.5t44 -17.5t17.5 -44t-17.5 -44t-44 -17.5t-44 17.5t-17.5 44zM51 0h103l-21 1024h-61z" />
<glyph unicode="&#xa2;" horiz-adv-x="776" d="M51 410q0 190 109.5 299.5t257.5 109.5q68 0 125 -23.5t89 -56t54.5 -65.5t30.5 -56l8 -24h-82q-2 6 -7 15t-25.5 34t-44 44.5t-63.5 34.5t-85 15q-119 -2 -202 -89t-83 -238q0 -160 70.5 -245t214.5 -83q143 0 217 111l8 12h82q-4 -8 -10 -22.5t-33 -49.5t-58.5 -61.5 t-87 -49t-118.5 -22.5q-172 0 -269.5 106.5t-97.5 303.5zM348 930h80l2 -1014h-80z" />
<glyph unicode="&#xa3;" horiz-adv-x="931" d="M41 2q0 2 49 115.5t97.5 262t48.5 236.5h-195v82h180q-8 45 -24.5 106.5t-24.5 102.5t-8 78q0 131 98 209t230 78q117 0 201.5 -59.5t84.5 -125.5h-82q0 4 -3 11.5t-16 25t-33.5 30.5t-60.5 24.5t-91 11.5q-113 0 -179.5 -51.5t-66.5 -153.5q0 -37 12 -96.5t28.5 -119.5 t18.5 -71h268v-82h-254q0 -96 -34.5 -204.5t-69.5 -186.5t-35 -96q82 16 127 16q66 0 199 -51t170 -51q66 0 104.5 47t38.5 76h82q0 -59 -61.5 -132t-163.5 -73q-76 0 -182.5 51t-186.5 51q-35 0 -91 -15t-97 -32l-39 -14q-39 -14 -39 0zM80 2h2h-2zM82 4h2h-2zM84 4h2h-2z M86 6h2h-2zM88 4q25 12 31 14q-6 -2 -31 -14zM90 6q25 12 31 14q-6 -2 -31 -14z" />
<glyph unicode="&#xa4;" horiz-adv-x="700" d="M41 494q0 100 59 188l-53 51l59 60l48 -50q90 76 196.5 76t196.5 -76l49 50l57 -60l-53 -51q59 -84 59 -188.5t-61 -194.5l55 -55l-57 -58l-51 52q-88 -74 -195 -74q-109 0 -192 74l-52 -52l-59 58l55 55q-61 91 -61 195zM123 489q0 -119 68.5 -192.5t158.5 -73.5 q92 0 163 75t71 191.5t-72 190.5t-162 74t-158.5 -74t-68.5 -191z" />
<glyph unicode="&#xa5;" horiz-adv-x="966" d="M41 1270h78l364 -598l365 598h78l-398 -672h277v-82h-283v-186h283v-82h-283v-248h-78v248h-282v82h282v186h-282v82h274z" />
<glyph unicode="&#xa6;" horiz-adv-x="161" d="M41 -262v717h80v-717h-80zM41 659v713h80v-713h-80z" />
<glyph unicode="&#xa7;" horiz-adv-x="747" d="M41 674q0 139 115 194q-70 49 -70 142q0 111 85 165t181 54q123 0 200 -47t77 -117h-86q0 4 -3 10t-15.5 23.5t-31 31t-53 23.5t-80.5 10q-106 0 -149 -51t-43 -102q0 -55 55.5 -87t134 -49.5t158.5 -40t135.5 -80t55.5 -151.5q0 -139 -115 -194q70 -49 70 -142 q0 -111 -85 -165t-182 -54q-123 0 -199.5 47t-76.5 117h88q-2 0 2 -10.5t15.5 -24.5t29.5 -28.5t53 -24.5t80 -10q57 0 98 17t59.5 44t27 49.5t8.5 42.5q0 55 -55.5 87t-134.5 49.5t-158.5 40t-135 80t-55.5 151.5zM115 684q0 -55 24.5 -93t70.5 -59.5t91 -34t110.5 -26.5 t102.5 -27q119 51 119 148q0 55 -24.5 93t-70.5 59.5t-91.5 34t-110 26.5t-100.5 26q-121 -49 -121 -147z" />
<glyph unicode="&#xa8;" horiz-adv-x="460" d="M59 1024q0 18 14.5 32.5t30.5 14.5q18 0 33 -14.5t15 -32.5q0 -16 -14.5 -30.5t-33.5 -14.5q-16 0 -30.5 14.5t-14.5 30.5zM281 1024q0 18 14 32.5t31 14.5q18 0 32.5 -14.5t14.5 -32.5q0 -16 -14.5 -30.5t-32.5 -14.5q-16 0 -30.5 14.5t-14.5 30.5z" />
<glyph unicode="&#xa9;" horiz-adv-x="1024" d="M41 471.5q0 192.5 137 333.5q141 137 334 137t334 -137q137 -141 137 -333.5t-137 -334.5q-141 -137 -334 -137t-334 137q-137 142 -137 334.5zM82 471q0 -178 126 -304t304 -126t304 126t126 304t-126 304t-304 126t-304 -126t-126 -304zM268 471q0 125 73 198.5 t171 73.5q72 0 123 -37.5t65 -74.5l17 -37h-55q-4 10 -14.5 26.5t-48.5 42t-87 25.5q-78 0 -133 -58.5t-55 -158.5q0 -219 188 -219q102 6 150 84h55q-2 -6 -7 -15.5t-22.5 -33t-39 -42t-58.5 -32.5t-78 -14q-115 0 -179.5 70.5t-64.5 201.5z" />
<glyph unicode="&#xaa;" horiz-adv-x="389" d="M41 1008q0 59 43 96t121 37q25 0 49.5 -4t38.5 -8.5t16 -4.5q0 102 -114 103q-41 0 -67 -13.5t-33 -24.5t-7 -20h-37q0 39 38 68t106 29q90 0 121.5 -43t31.5 -150v-190h-39v57q-37 -57 -125 -57q-143 0 -143 125zM80 1008q0 -86 104 -86q53 0 89 25.5t36 49.5v93 q-53 14 -104 14q-125 0 -125 -96z" />
<glyph unicode="&#xab;" horiz-adv-x="716" d="M41 410l307 307l41 -41q-14 -31 -36.5 -75t-83 -117.5t-105.5 -73.5q45 0 101.5 -67t90.5 -134l33 -66l-41 -41zM328 410l307 307l41 -41q-14 -31 -37 -75t-83 -117.5t-105 -73.5q45 0 101 -67t91 -134l33 -66l-41 -41z" />
<glyph unicode="&#xac;" horiz-adv-x="733" d="M41 590v74h651v-299h-74v225h-577z" />
<glyph unicode="&#xad;" horiz-adv-x="798" d="M0 532v82h799v-82h-799z" />
<glyph unicode="&#xae;" horiz-adv-x="1024" d="M41 471.5q0 192.5 137 333.5q141 137 334 137t334 -137q137 -141 137 -333.5t-137 -334.5q-141 -137 -334 -137t-334 137q-137 142 -137 334.5zM82 471q0 -178 126 -304t304 -126t304 126t126 304t-126 304t-304 126t-304 -126t-126 -304zM385 205v555h135q84 0 122 -46 t38 -98q0 -96 -88 -131q2 -2 8 -4t8 -4q31 -23 45 -53q18 -37 19 -86q0 -37 10 -71t20 -48l11 -14h-43q-35 49 -35 133q0 45 -16.5 74.5t-43 42t-43 15.5t-30.5 3h-82v-268h-35zM420 508h98q68 0 100 39q27 31 27 69.5t-24 67.5q-33 39 -101 39h-100v-215z" />
<glyph unicode="&#xaf;" horiz-adv-x="573" d="M80 1073q-33 41 0 82h418q27 -41 0 -82h-418z" />
<glyph unicode="&#xb0;" horiz-adv-x="450" d="M41 1249q0 78 53 131.5t131 53.5t131.5 -53.5t53.5 -131.5t-53.5 -131t-131.5 -53t-131 53t-53 131zM82 1249.5q0 -61.5 41 -102.5t102.5 -41t102.5 41t41 102.5t-41 102.5t-102.5 41t-102.5 -41t-41 -102.5z" />
<glyph unicode="&#xb1;" horiz-adv-x="614" d="M41 231v82h532v-82h-532zM41 594v82h225v225h82v-225h225v-82h-225v-225h-82v225h-225z" />
<glyph unicode="&#xb2;" horiz-adv-x="323" d="M41 1020v27q0 39 104.5 140t104.5 136q0 84 -90 84q-41 0 -61.5 -17.5t-21.5 -27.5t-1 -25h-27q0 20 7 40t34 38.5t70 18.5q45 0 80.5 -25t35.5 -86q0 -41 -52 -95t-103 -103.5t-51 -77.5h213v-27h-242z" />
<glyph unicode="&#xb3;" horiz-adv-x="335" d="M41 1120v4h27v-4q2 -23 22.5 -46t67.5 -23q41 0 75.5 25.5t34.5 70.5q0 43 -43 70q-33 20 -67 20h-2v4v12v9v2h2q23 0 51 24q27 27 27 53q0 29 -21.5 46.5t-56.5 17.5q-27 0 -56 -14q-20 -16 -20 -29v-4h-27v4q0 27 29 49q31 20 74 21q41 0 67 -17q37 -25 37 -74t-49 -86 q33 -16 45 -28q37 -31 37 -80q0 -59 -45 -92q-37 -31 -92 -31q-59 0 -90 35q-27 28 -27 61z" />
<glyph unicode="&#xb4;" horiz-adv-x="307" d="M41 956l143 185q14 0 48 -35t34 -47l-205 -123z" />
<glyph unicode="&#xb5;" horiz-adv-x="716" d="M61 287v22v510h82v-532q0 -31 6.5 -59.5t23.5 -64.5t57 -58.5t98 -22.5q119 0 182 71.5t63 139.5v526h82v-821h-82v145q-27 -57 -94 -100t-151 -43q-117 0 -185 68v-498h-82v717z" />
<glyph unicode="&#x3bc;" horiz-adv-x="716" d="M61 287v22v510h82v-532q0 -31 6.5 -59.5t23.5 -64.5t57 -58.5t98 -22.5q119 0 182 71.5t63 139.5v526h82v-821h-82v145q-27 -57 -94 -100t-151 -43q-117 0 -185 68v-498h-82v717z" />
<glyph unicode="&#xb6;" horiz-adv-x="935" d="M61 1069q0 147 103.5 254t251.5 111h69h21h368v-41h-204v-1393h-41v1393h-123v-1393h-41v702h-37q-152 0 -259.5 107.5t-107.5 259.5z" />
<glyph unicode="&#xb7;" horiz-adv-x="174" d="M41 711q0 18 14.5 32.5t30.5 14.5q18 0 32.5 -14.5t14.5 -32.5q0 -16 -14.5 -30.5t-32.5 -14.5q-16 0 -30.5 14.5t-14.5 30.5z" />
<glyph unicode="&#xb8;" horiz-adv-x="307" d="M31 -410l12 41h51q20 0 46 5.5t54.5 26t28.5 54.5q0 18 -4 32.5t-15 23t-18.5 13.5t-26 7t-25.5 2h-29h-23l92 205h49l-65 -154h12q8 0 28.5 -6t36 -18t28.5 -41t13 -68q0 -51 -40.5 -87t-114.5 -36h-90z" />
<glyph unicode="&#xb9;" horiz-adv-x="178" d="M41 1366v33l70 37h26v-412h-26v377z" />
<glyph unicode="&#xba;" horiz-adv-x="471" d="M41 1229q0 80 56.5 142.5t138 62.5t138 -62.5t56.5 -142.5t-56.5 -142.5t-138 -62.5t-138 62.5t-56.5 142.5zM86 1228.5q0 -61.5 43 -114.5t107 -53q61 0 104 53t43 114.5t-43 114t-104 52.5q-63 0 -106.5 -52.5t-43.5 -114z" />
<glyph unicode="&#xbb;" horiz-adv-x="716" d="M41 143q14 31 36.5 75t83 118t105.5 74q-45 0 -101 66.5t-91 133.5l-33 66l41 41l307 -307l-307 -308zM328 143q14 31 36.5 75t83 118t105.5 74q-45 0 -101.5 66.5t-91.5 133.5l-32 66l41 41l307 -307l-307 -308z" />
<glyph unicode="&#xbc;" horiz-adv-x="2467" d="M1567 471v102l533 656h102v-676h225v-82h-225v-471h-82v471h-553zM1653 553h467v563zM451 41l956 1393l68 -41l-963 -1393zM61 1024v94l205 111h82v-1229h-82v1126z" />
<glyph unicode="&#xbd;" horiz-adv-x="2334" d="M1567 0v82q0 76 96.5 193.5t211 222t211 219t96.5 184.5q0 246 -267 246q-88 0 -144 -23.5t-74.5 -63.5t-22.5 -61.5t-4 -50.5v-6h-82q0 43 13 87t45 92t101.5 78t167.5 30q61 0 116.5 -14.5t111 -48t88.5 -101.5t33 -164q0 -80 -63.5 -174t-154 -180t-180.5 -169 t-153.5 -162t-63.5 -134h635v-82h-717zM451 41l956 1393l68 -41l-963 -1393zM61 1024v94l205 111h82v-1229h-82v1126z" />
<glyph unicode="&#xbe;" horiz-adv-x="2926" d="M2025 471v102l533 656h102v-676h225v-82h-225v-471h-82v471h-553zM2111 553h467v563zM909 41l956 1393l68 -41l-963 -1393zM51 293v10h80v-10q2 -70 66.5 -141.5t205.5 -71.5q121 0 227.5 78t106.5 215q0 123 -129 207q-104 66 -205 65h-10v10v35v25v10h10q72 0 150 74 q82 76 82 157q0 86 -64.5 139.5t-167.5 53.5q-94 0 -165 -45q-66 -43 -66 -86v-10h-80v10q0 86 86 147q92 63 225 64q121 0 203 -51q111 -72 111 -222q0 -80 -49.5 -150.5t-102.5 -107.5q76 -31 140 -84q113 -100 112 -241q0 -178 -135 -283q-117 -90 -279 -90 q-180 0 -276 102q-76 82 -76 191z" />
<glyph unicode="&#xbf;" horiz-adv-x="788" d="M51 -82q0 88 19.5 158.5t46 112.5t68.5 77t71 49.5t72 32t51 21.5v204h102v-286q-14 -6 -59 -20.5t-72.5 -26t-68.5 -39t-66 -61.5t-43 -91t-18 -131q0 -88 29.5 -149.5t77.5 -89t91 -38t88 -10.5q68 0 148 42t80 104h80q0 -86 -76 -157t-232 -71q-39 0 -81 6.5t-99 30 t-101 61.5t-76 108.5t-32 162.5zM373 757.5q0 26.5 17.5 44t44 17.5t44 -17.5t17.5 -44t-17.5 -44t-44 -17.5t-44 17.5t-17.5 44z" />
<glyph unicode="&#xc0;" horiz-adv-x="1267" d="M51 0l522 1270h82l562 -1270h-87l-194 438h-619l-182 -438h-84zM344 502h563l-293 665zM520 1513q0 12 34 47t48 35l143 -184l-20 -20z" />
<glyph unicode="&#xc1;" horiz-adv-x="1267" d="M51 0l522 1270h82l562 -1270h-87l-194 438h-619l-182 -438h-84zM344 502h563l-293 665zM520 1409l144 184q14 0 47.5 -34.5t33.5 -47.5l-204 -122z" />
<glyph unicode="&#xc2;" horiz-adv-x="1267" d="M51 0l522 1270h82l562 -1270h-87l-194 438h-619l-182 -438h-84zM344 502h563l-293 665zM449 1370l184 189l184 -185l-20 -20q-123 82 -164 123q-41 -41 -164 -123z" />
<glyph unicode="&#xc3;" horiz-adv-x="1267" d="M51 0l522 1270h82l562 -1270h-87l-194 438h-619l-182 -438h-84zM344 502h563l-293 665zM373 1462q0 12 47 60q63 63 131 63q57 0 111 -53q29 -29 53 -29q31 0 62.5 29t45.5 53l70 -41q0 -12 -47 -59q-63 -63 -131 -64q-57 0 -111 54q-29 29 -53 28q-31 0 -62.5 -28.5 t-46.5 -53.5z" />
<glyph unicode="&#xc4;" horiz-adv-x="1267" d="M51 0l522 1270h82l562 -1270h-87l-194 438h-619l-182 -438h-84zM344 502h563l-293 665zM477 1477q0 18 14.5 32.5t30.5 14.5q18 0 32.5 -14.5t14.5 -32.5q0 -16 -14 -30.5t-33 -14.5q-16 0 -30.5 14.5t-14.5 30.5zM698 1477q0 18 14.5 32.5t30.5 14.5q18 0 33 -14.5 t15 -32.5q0 -16 -14.5 -30.5t-33.5 -14.5q-16 0 -30.5 14.5t-14.5 30.5z" />
<glyph unicode="&#xc5;" horiz-adv-x="1267" d="M51 0l522 1270h82l562 -1270h-87l-194 438h-619l-182 -438h-84zM344 502h563l-293 665zM500 1515.5q0 59.5 39 101.5t94 42t94 -42t39 -101.5t-39 -100.5t-94 -41t-94 41t-39 100.5zM561 1516q0 -31 19.5 -51.5t52.5 -20.5q31 0 52.5 21.5t21.5 50.5q0 37 -21.5 55 t-52.5 18q-33 0 -52.5 -22t-19.5 -51z" />
<glyph unicode="&#xc6;" horiz-adv-x="1662" d="M41 2l801 1270h82h649v-68h-647v-499h608v-68h-608v-567h686v-68h-770v438h-443l-274 -438h-84zM440 504h402v637z" />
<glyph unicode="&#xc7;" horiz-adv-x="1161" d="M51 634.5q0 276.5 160 456t418 179.5q96 0 181 -31t137 -73t91 -89t54.5 -76.5t17.5 -37.5l-74 -23q-29 70 -102 137q-123 111 -305 111q-221 0 -358.5 -153.5t-137.5 -399.5t137.5 -399.5t358.5 -153.5q186 0 305 111q74 68 102 137l74 -23q-2 -8 -17.5 -37.5t-54.5 -77 t-91 -89.5t-137 -72.5t-181 -30.5q-258 0 -418 179t-160 455.5zM457 -410l12 41h51q20 0 46 5.5t54.5 26t28.5 54.5q0 18 -4 32.5t-15.5 23t-18.5 13.5t-25.5 7t-25.5 2h-29h-23l92 205h49l-65 -154h12q8 0 28.5 -6t36 -18t28.5 -41t13 -68q0 -51 -40.5 -87t-114.5 -36h-90z " />
<glyph unicode="&#xc8;" horiz-adv-x="892" d="M61 0v1270h732v-68h-648v-500h609v-67h-609v-567h686v-68h-770zM334 1513q0 12 33.5 47t48.5 35l143 -184l-20 -20z" />
<glyph unicode="&#xc9;" horiz-adv-x="892" d="M61 0v1270h732v-68h-648v-500h609v-67h-609v-567h686v-68h-770zM334 1409l143 184q14 0 48 -34.5t34 -47.5l-205 -122z" />
<glyph unicode="&#xca;" horiz-adv-x="892" d="M61 0v1270h732v-68h-648v-500h609v-67h-609v-567h686v-68h-770zM262 1370l184 189l185 -185l-21 -20q-123 82 -164 123q-41 -41 -163 -123z" />
<glyph unicode="&#xcb;" horiz-adv-x="892" d="M61 0v1270h732v-68h-648v-500h609v-67h-609v-567h686v-68h-770zM289 1477q0 18 14 32.5t31 14.5q18 0 32.5 -14.5t14.5 -32.5q0 -16 -14.5 -30.5t-32.5 -14.5q-16 0 -30.5 14.5t-14.5 30.5zM510 1477q0 18 14.5 32.5t30.5 14.5q18 0 32.5 -14.5t14.5 -32.5 q0 -16 -14.5 -30.5t-32.5 -14.5q-16 0 -30.5 14.5t-14.5 30.5z" />
<glyph unicode="&#xcc;" d="M-10 1513q0 12 33.5 47t48.5 35l143 -184l-20 -20zM61 0v1270h82v-1270h-82z" />
<glyph unicode="&#xcd;" d="M-10 1409l143 184q14 0 48 -34.5t34 -47.5l-205 -122zM61 0v1270h82v-1270h-82z" />
<glyph unicode="&#xce;" d="M-82 1370l184 189l185 -185l-21 -20q-123 82 -164 123q-41 -41 -163 -123zM61 0v1270h82v-1270h-82z" />
<glyph unicode="&#xcf;" d="M-53 1477q0 18 14 32.5t31 14.5q18 0 32.5 -14.5t14.5 -32.5q0 -16 -14.5 -30.5t-32.5 -14.5q-16 0 -30.5 14.5t-14.5 30.5zM61 0h82v1270h-82v-1270zM168 1477q0 18 14.5 32.5t30.5 14.5q18 0 32.5 -14.5t14.5 -32.5q0 -16 -14.5 -30.5t-32.5 -14.5q-16 0 -30.5 14.5 t-14.5 30.5z" />
<glyph unicode="&#xd0;" horiz-adv-x="1095" d="M-49 631v82h110v557h349q283 0 458.5 -164t175.5 -451q0 -291 -178 -473t-456 -182h-349v631h-110zM143 82h267q240 0 396.5 157.5t156.5 415.5q0 250 -152 391.5t-401 141.5h-267v-475h414v-82h-414v-549z" />
<glyph unicode="&#xd1;" horiz-adv-x="1085" d="M61 0v1270h86l799 -1147v1147h78v-1270h-86l-799 1147v-1147h-78zM283 1462q0 12 47 60q63 63 131 63q57 0 110 -53q29 -29 54 -29q31 0 62.5 29t45.5 53l70 -41q0 -12 -47 -59q-63 -63 -131 -64q-57 0 -111 54q-29 29 -53 28q-31 0 -62.5 -28.5t-46.5 -53.5z" />
<glyph unicode="&#xd2;" horiz-adv-x="1249" d="M51 635q0 299 166 467t408 168q250 0 411.5 -158t161.5 -477.5t-162 -477t-411 -157.5q-242 0 -408 168t-166 467zM133 635q0 -270 143.5 -411.5t348.5 -141.5q55 0 109 8t127 42t126 90.5t91 163t38 249.5t-38 249.5t-91 163t-126 90t-127 42t-109 8.5 q-205 0 -348.5 -141.5t-143.5 -411.5zM512 1513q0 12 34 47t48 35l143 -184l-20 -20z" />
<glyph unicode="&#xd3;" horiz-adv-x="1249" d="M51 635q0 299 166 467t408 168q250 0 411.5 -158t161.5 -477.5t-162 -477t-411 -157.5q-242 0 -408 168t-166 467zM133 635q0 -270 143.5 -411.5t348.5 -141.5q55 0 109 8t127 42t126 90.5t91 163t38 249.5t-38 249.5t-91 163t-126 90t-127 42t-109 8.5 q-205 0 -348.5 -141.5t-143.5 -411.5zM512 1409l143 184q14 0 48 -34.5t34 -47.5l-205 -122z" />
<glyph unicode="&#xd4;" horiz-adv-x="1249" d="M51 635q0 299 166 467t408 168q250 0 411.5 -158t161.5 -477.5t-162 -477t-411 -157.5q-242 0 -408 168t-166 467zM133 635q0 -270 143.5 -411.5t348.5 -141.5q55 0 109 8t127 42t126 90.5t91 163t38 249.5t-38 249.5t-91 163t-126 90t-127 42t-109 8.5 q-205 0 -348.5 -141.5t-143.5 -411.5zM440 1370l185 189l184 -185l-21 -20q-123 82 -163 123q-41 -41 -164 -123z" />
<glyph unicode="&#xd5;" horiz-adv-x="1249" d="M51 635q0 299 166 467t408 168q250 0 411.5 -158t161.5 -477.5t-162 -477t-411 -157.5q-242 0 -408 168t-166 467zM133 635q0 -270 143.5 -411.5t348.5 -141.5q55 0 109 8t127 42t126 90.5t91 163t38 249.5t-38 249.5t-91 163t-126 90t-127 42t-109 8.5 q-205 0 -348.5 -141.5t-143.5 -411.5zM365 1462q0 12 47 60q63 63 131 63q57 0 110 -53q29 -29 54 -29q31 0 62.5 29t45.5 53l70 -41q0 -12 -47 -59q-63 -63 -131 -64q-57 0 -111 54q-29 29 -53 28q-31 0 -62.5 -28.5t-46.5 -53.5z" />
<glyph unicode="&#xd6;" horiz-adv-x="1249" d="M51 635q0 299 166 467t408 168q250 0 411.5 -158t161.5 -477.5t-162 -477t-411 -157.5q-242 0 -408 168t-166 467zM133 635q0 -270 143.5 -411.5t348.5 -141.5q55 0 109 8t127 42t126 90.5t91 163t38 249.5t-38 249.5t-91 163t-126 90t-127 42t-109 8.5 q-205 0 -348.5 -141.5t-143.5 -411.5zM467 1477q0 18 14.5 32.5t30.5 14.5q18 0 32.5 -14.5t14.5 -32.5q0 -16 -14.5 -30.5t-32.5 -14.5q-16 0 -30.5 14.5t-14.5 30.5zM688 1477q0 18 14.5 32.5t30.5 14.5q18 0 32.5 -14.5t14.5 -32.5q0 -16 -14 -30.5t-33 -14.5 q-16 0 -30.5 14.5t-14.5 30.5z" />
<glyph unicode="&#xd7;" horiz-adv-x="516" d="M41 408l160 159l-160 160l57 57l160 -159l160 159l57 -57l-158 -160l158 -159l-57 -58l-160 160l-160 -160z" />
<glyph unicode="&#xd8;" horiz-adv-x="1249" d="M51 635q0 299 166 467t408 168q88 0 161 -21l31 80h119l-45 -115q307 -143 307 -579q0 -319 -162 -477t-411 -158q-98 0 -181 27l-30 -82h-121l47 127q-133 74 -211 218t-78 345zM133 635q0 -346 238 -488l387 1027q-72 14 -133 14q-205 0 -348.5 -141.5t-143.5 -411.5z M473 102q70 -20 152 -20q55 0 109 8t127 42t126 90.5t91 163t38 249.5q0 383 -254 502z" />
<glyph unicode="&#xd9;" horiz-adv-x="1085" d="M51 532v738h82v-738q0 -451 451 -450q174 0 271 113.5t97 316.5v758h82v-758q0 -242 -124 -377t-326 -135q-268 0 -400.5 139t-132.5 393zM430 1513q0 12 34 47t48 35l143 -184l-20 -20z" />
<glyph unicode="&#xda;" horiz-adv-x="1085" d="M51 532v738h82v-738q0 -451 451 -450q174 0 271 113.5t97 316.5v758h82v-758q0 -242 -124 -377t-326 -135q-268 0 -400.5 139t-132.5 393zM430 1409l143 184q14 0 48 -34.5t34 -47.5l-204 -122z" />
<glyph unicode="&#xdb;" horiz-adv-x="1085" d="M51 532v738h82v-738q0 -451 451 -450q174 0 271 113.5t97 316.5v758h82v-758q0 -242 -124 -377t-326 -135q-268 0 -400.5 139t-132.5 393zM358 1370l185 189l184 -185l-20 -20q-123 82 -164 123q-41 -41 -164 -123z" />
<glyph unicode="&#xdc;" horiz-adv-x="1085" d="M51 532v738h82v-738q0 -451 451 -450q174 0 271 113.5t97 316.5v758h82v-758q0 -242 -124 -377t-326 -135q-268 0 -400.5 139t-132.5 393zM385 1477q0 18 14.5 32.5t30.5 14.5q18 0 32.5 -14.5t14.5 -32.5q0 -16 -14 -30.5t-33 -14.5q-16 0 -30.5 14.5t-14.5 30.5z M606 1477q0 18 14.5 32.5t30.5 14.5q18 0 32.5 -14.5t14.5 -32.5q0 -16 -14 -30.5t-33 -14.5q-16 0 -30.5 14.5t-14.5 30.5z" />
<glyph unicode="&#xdd;" horiz-adv-x="946" d="M31 1270h78l364 -598l365 598h77l-403 -684v-586h-78v586zM360 1409l144 184q14 0 48 -34.5t34 -47.5l-205 -122z" />
<glyph unicode="&#xdf;" horiz-adv-x="890" d="M51 676v82h82v20v27v81q0 30 6 85t16.5 90t33 79t54 68.5t83 43t114.5 18.5q166 0 237 -86t71 -201q0 -70 -41 -129t-82 -102t-41 -76q0 -23 27.5 -46.5t66.5 -49t78 -59.5t66.5 -90t27.5 -124q0 -156 -92 -231.5t-215 -75.5q-94 0 -149.5 31.5t-55.5 91.5h82 q0 -12 14 -21q37 -20 109 -20q29 0 59.5 7t71.5 26.5t67.5 68.5t26.5 123q0 57 -37 114.5t-88 92.5q-55 33 -84 59q-57 51 -57 103q0 63 80 160q8 8 24.5 26.5t23.5 28.5t17 25.5t14.5 32t4.5 34.5q0 205 -226 205q-86 0 -135 -49q-43 -43 -64.5 -106.5t-23.5 -104.5 t-2 -121v-29v-778h-82v676h-82z" />
<glyph unicode="&#xe0;" horiz-adv-x="757" d="M51 266q0 127 92.5 207t255.5 80q43 0 85 -5t69 -12.5t48.5 -13.5t23.5 -6q0 221 -246 221q-55 0 -97 -11t-65.5 -26.5t-39 -34t-19.5 -30.5t-4 -21h-82q0 84 80.5 144.5t226.5 60.5q193 0 259.5 -92t66.5 -317q0 -197 1 -298.5t1 -111.5h-82q0 100 -2 123 q-4 -4 -10.5 -13.5t-30 -30t-51 -36.5t-74.5 -29.5t-99 -13.5q-143 0 -225 66.5t-82 199.5zM133 266q0 -184 225 -184q111 0 188 55.5t77 108.5q2 188 2 196q-102 29 -226 29q-86 0 -144 -22.5t-81.5 -59.5t-32 -64.5t-8.5 -58.5zM266 1061q0 12 34 47t48 35l144 -185 l-21 -20z" />
<glyph unicode="&#xe1;" horiz-adv-x="757" d="M51 266q0 127 92.5 207t255.5 80q43 0 85 -5t69 -12.5t48.5 -13.5t23.5 -6q0 221 -246 221q-55 0 -97 -11t-65.5 -26.5t-39 -34t-19.5 -30.5t-4 -21h-82q0 84 80.5 144.5t226.5 60.5q193 0 259.5 -92t66.5 -317q0 -197 1 -298.5t1 -111.5h-82q0 100 -2 123 q-4 -4 -10.5 -13.5t-30 -30t-51 -36.5t-74.5 -29.5t-99 -13.5q-143 0 -225 66.5t-82 199.5zM133 266q0 -184 225 -184q111 0 188 55.5t77 108.5q2 188 2 196q-102 29 -226 29q-86 0 -144 -22.5t-81.5 -59.5t-32 -64.5t-8.5 -58.5zM266 956l144 185q14 0 48 -35t34 -47 l-205 -123z" />
<glyph unicode="&#xe2;" horiz-adv-x="757" d="M51 266q0 127 92.5 207t255.5 80q43 0 85 -5t69 -12.5t48.5 -13.5t23.5 -6q0 221 -246 221q-55 0 -97 -11t-65.5 -26.5t-39 -34t-19.5 -30.5t-4 -21h-82q0 84 80.5 144.5t226.5 60.5q193 0 259.5 -92t66.5 -317q0 -197 1 -298.5t1 -111.5h-82q0 100 -2 123 q-4 -4 -10.5 -13.5t-30 -30t-51 -36.5t-74.5 -29.5t-99 -13.5q-143 0 -225 66.5t-82 199.5zM133 266q0 -184 225 -184q111 0 188 55.5t77 108.5q2 188 2 196q-102 29 -226 29q-86 0 -144 -22.5t-81.5 -59.5t-32 -64.5t-8.5 -58.5zM195 918l184 188l184 -184l-20 -21 q-123 82 -164 123q-41 -41 -164 -123z" />
<glyph unicode="&#xe3;" horiz-adv-x="757" d="M51 266q0 127 92.5 207t255.5 80q43 0 85 -5t69 -12.5t48.5 -13.5t23.5 -6q0 221 -246 221q-55 0 -97 -11t-65.5 -26.5t-39 -34t-19.5 -30.5t-4 -21h-82q0 84 80.5 144.5t226.5 60.5q193 0 259.5 -92t66.5 -317q0 -197 1 -298.5t1 -111.5h-82q0 100 -2 123 q-4 -4 -10.5 -13.5t-30 -30t-51 -36.5t-74.5 -29.5t-99 -13.5q-143 0 -225 66.5t-82 199.5zM119 1010q0 12 47 59q63 63 131 64q57 0 111 -54q29 -29 53 -28q31 0 62.5 28.5t45.5 53.5l70 -41q0 -12 -47 -60q-63 -63 -131 -63q-57 0 -111 53q-29 29 -53 29q-31 0 -62.5 -29 t-46.5 -53zM133 266q0 -184 225 -184q111 0 188 55.5t77 108.5q2 188 2 196q-102 29 -226 29q-86 0 -144 -22.5t-81.5 -59.5t-32 -64.5t-8.5 -58.5z" />
<glyph unicode="&#xe4;" horiz-adv-x="757" d="M51 266q0 127 92.5 207t255.5 80q43 0 85 -5t69 -12.5t48.5 -13.5t23.5 -6q0 221 -246 221q-55 0 -97 -11t-65.5 -26.5t-39 -34t-19.5 -30.5t-4 -21h-82q0 84 80.5 144.5t226.5 60.5q193 0 259.5 -92t66.5 -317q0 -197 1 -298.5t1 -111.5h-82q0 100 -2 123 q-4 -4 -10.5 -13.5t-30 -30t-51 -36.5t-74.5 -29.5t-99 -13.5q-143 0 -225 66.5t-82 199.5zM133 266q0 -184 225 -184q111 0 188 55.5t77 108.5q2 188 2 196q-102 29 -226 29q-86 0 -144 -22.5t-81.5 -59.5t-32 -64.5t-8.5 -58.5zM221 1024q0 18 14.5 32.5t30.5 14.5 q18 0 32.5 -14.5t14.5 -32.5q0 -16 -14 -30.5t-33 -14.5q-16 0 -30.5 14.5t-14.5 30.5zM442 1024q0 18 14.5 32.5t30.5 14.5q18 0 33 -14.5t15 -32.5q0 -16 -14.5 -30.5t-33.5 -14.5q-16 0 -30.5 14.5t-14.5 30.5z" />
<glyph unicode="&#xe5;" horiz-adv-x="757" d="M51 266q0 127 92.5 207t255.5 80q43 0 85 -5t69 -12.5t48.5 -13.5t23.5 -6q0 221 -246 221q-55 0 -97 -11t-65.5 -26.5t-39 -34t-19.5 -30.5t-4 -21h-82q0 84 80.5 144.5t226.5 60.5q193 0 259.5 -92t66.5 -317q0 -197 1 -298.5t1 -111.5h-82q0 100 -2 123 q-4 -4 -10.5 -13.5t-30 -30t-51 -36.5t-74.5 -29.5t-99 -13.5q-143 0 -225 66.5t-82 199.5zM133 266q0 -184 225 -184q111 0 188 55.5t77 108.5q2 188 2 196q-102 29 -226 29q-86 0 -144 -22.5t-81.5 -59.5t-32 -64.5t-8.5 -58.5zM246 1063q0 59 39 101t94 42t94 -42 t39 -101t-39 -100t-94 -41t-94 41t-39 100zM307 1063q0 -31 19.5 -51.5t52.5 -20.5q31 0 52.5 20.5t21.5 51.5q0 37 -21.5 55.5t-52.5 18.5q-33 0 -52.5 -22.5t-19.5 -51.5z" />
<glyph unicode="&#xe6;" horiz-adv-x="1355" d="M51 266q0 231 348 236l226 -8q0 117 -62.5 180t-185.5 63q-53 0 -96 -11t-65.5 -26.5t-38 -34t-19.5 -30.5t-4 -21h-82q0 84 80.5 144.5t224.5 60.5q131 0 200.5 -41t98.5 -129q88 170 297 170q127 0 229.5 -99t102.5 -296l-598 -2q0 -66 13 -123t45 -107.5t91 -80 t141 -29.5q29 0 56.5 7t49 17.5t41 23.5t34 26.5t24.5 23.5t15 17l6 8h2h2h2h2h2h2h2h2h2h4h2h2h2h4h2h5h2h4h2h4h2h4h4h19q-4 -8 -10.5 -22.5t-32 -49.5t-57.5 -61.5t-87 -49t-119 -22.5q-236 0 -325 190q-4 -6 -13.5 -23t-13.5 -24q-96 -143 -287 -143q-143 0 -225 66.5 t-82 199.5zM133 266q0 -184 225 -184q266 0 267 287v51q-39 4 -226 4q-86 0 -144 -15.5t-81.5 -42t-32 -49t-8.5 -51.5zM709 489h514q0 96 -69 176t-196 80q-125 0 -185 -80t-64 -176z" />
<glyph unicode="&#xe7;" horiz-adv-x="776" d="M51 410q0 190 109.5 299.5t257.5 109.5q68 0 125 -23.5t89 -56t54.5 -65.5t30.5 -56l8 -24h-82q-2 6 -7 15t-25.5 34t-44 44.5t-63.5 34.5t-85 15q-119 -2 -202 -89t-83 -238q0 -160 70.5 -245t214.5 -83q143 0 217 111l8 12h82q-4 -8 -10 -22.5t-33 -49.5t-58.5 -61.5 t-87 -49t-118.5 -22.5q-172 0 -269.5 106.5t-97.5 303.5zM264 -410l12 41h52q20 0 45.5 5.5t54.5 26t29 54.5q0 18 -4 32.5t-15.5 23t-18.5 13.5t-25.5 7t-25.5 2h-29h-24l93 205h49l-66 -154h12q8 0 29 -6t36 -18t28.5 -41t13.5 -68q0 -51 -41 -87t-115 -36h-90z" />
<glyph unicode="&#xe8;" horiz-adv-x="780" d="M53 410q-2 213 97.5 311t246.5 98q127 0 229.5 -96t102.5 -293h-598q0 -68 14.5 -125t45 -109.5t90 -83t141.5 -30.5q127 0 219 115l6 8h82q-4 -8 -10 -22.5t-33 -49.5t-58.5 -61.5t-87 -49t-118.5 -22.5q-170 0 -268.5 106.5t-100.5 303.5zM133 500h514 q0 102 -67.5 173.5t-196.5 71.5q-125 0 -185.5 -75.5t-64.5 -169.5zM276 1061q0 12 34 47t48 35l144 -185l-21 -20z" />
<glyph unicode="&#xe9;" horiz-adv-x="780" d="M53 410q-2 213 97.5 311t246.5 98q127 0 229.5 -96t102.5 -293h-598q0 -68 14.5 -125t45 -109.5t90 -83t141.5 -30.5q127 0 219 115l6 8h82q-4 -8 -10 -22.5t-33 -49.5t-58.5 -61.5t-87 -49t-118.5 -22.5q-170 0 -268.5 106.5t-100.5 303.5zM133 500h514 q0 102 -67.5 173.5t-196.5 71.5q-125 0 -185.5 -75.5t-64.5 -169.5zM276 956l144 185q14 0 48 -35t34 -47l-205 -123z" />
<glyph unicode="&#xea;" horiz-adv-x="780" d="M53 410q-2 213 97.5 311t246.5 98q127 0 229.5 -96t102.5 -293h-598q0 -68 14.5 -125t45 -109.5t90 -83t141.5 -30.5q127 0 219 115l6 8h82q-4 -8 -10 -22.5t-33 -49.5t-58.5 -61.5t-87 -49t-118.5 -22.5q-170 0 -268.5 106.5t-100.5 303.5zM133 500h514 q0 102 -67.5 173.5t-196.5 71.5q-125 0 -185.5 -75.5t-64.5 -169.5zM205 918l184 188l184 -184l-20 -21q-123 82 -164 123q-41 -41 -164 -123z" />
<glyph unicode="&#xeb;" horiz-adv-x="780" d="M53 410q-2 213 97.5 311t246.5 98q127 0 229.5 -96t102.5 -293h-598q0 -68 14.5 -125t45 -109.5t90 -83t141.5 -30.5q127 0 219 115l6 8h82q-4 -8 -10 -22.5t-33 -49.5t-58.5 -61.5t-87 -49t-118.5 -22.5q-170 0 -268.5 106.5t-100.5 303.5zM133 500h514 q0 102 -67.5 173.5t-196.5 71.5q-125 0 -185.5 -75.5t-64.5 -169.5zM233 1024q0 18 14.5 32.5t31.5 14.5q18 0 32.5 -14.5t14.5 -32.5q0 -16 -14.5 -30.5t-32.5 -14.5q-16 0 -31 14.5t-15 30.5zM455 1024q0 18 14 32.5t31 14.5q18 0 32.5 -14.5t14.5 -32.5 q0 -16 -14.5 -30.5t-32.5 -14.5q-16 0 -30.5 14.5t-14.5 30.5z" />
<glyph unicode="&#xec;" horiz-adv-x="229" d="M2 1061q0 12 34 47t48 35l143 -185l-20 -20zM76 4v815h82v-815h-82z" />
<glyph unicode="&#xed;" horiz-adv-x="229" d="M2 956l143 185q14 0 48 -35t34 -47l-204 -123zM76 4v815h82v-815h-82z" />
<glyph unicode="&#xee;" horiz-adv-x="229" d="M-70 918l185 188l184 -184l-20 -21q-123 82 -164 123q-41 -41 -164 -123zM76 4v815h82v-815h-82z" />
<glyph unicode="&#xef;" horiz-adv-x="229" d="M-41 1024q0 18 14.5 32.5t30.5 14.5q18 0 32.5 -14.5t14.5 -32.5q0 -16 -14 -30.5t-33 -14.5q-16 0 -30.5 14.5t-14.5 30.5zM76 4h82v815h-82v-815zM180 1024q0 18 14.5 32.5t30.5 14.5q18 0 32.5 -14.5t14.5 -32.5q0 -16 -14 -30.5t-33 -14.5q-16 0 -30.5 14.5 t-14.5 30.5z" />
<glyph unicode="&#xf0;" horiz-adv-x="888" d="M61 409.5q0 157.5 113 283.5t268 126q119 0 193 -70.5t94 -134.5v443h-211v82h211v295h82v-295h109v-82h-109v-1057h-82v193q-8 -47 -93 -120t-194 -73q-156 0 -268.5 126t-112.5 283.5zM150 409.5q0 -135.5 71 -223.5q94 -109 213 -108q117 0 211 108q74 92 72 227.5 t-72 219.5q-100 111 -211 110q-113 0 -213 -110q-71 -88 -71 -223.5z" />
<glyph unicode="&#xf1;" horiz-adv-x="706" d="M61 0v809h82v-133q27 57 94.5 100t151.5 43q139 0 202.5 -87t63.5 -200v-532h-82v532q0 31 -6 60t-23.5 64.5t-57.5 58t-97 22.5q-121 0 -183.5 -71.5t-62.5 -141.5v-524h-82zM92 1010q0 12 47 59q63 63 131 64q57 0 111 -54q29 -29 53 -28q31 0 62.5 28.5t46.5 53.5 l69 -41q0 -12 -47 -60q-63 -63 -131 -63q-57 0 -110 53q-29 29 -54 29q-31 0 -62.5 -29t-45.5 -53z" />
<glyph unicode="&#xf2;" horiz-adv-x="860" d="M41 409.5q0 159.5 112.5 284.5t276.5 125t276.5 -125t112.5 -284.5t-112.5 -284.5t-276.5 -125t-276.5 125t-112.5 284.5zM131 409.5q0 -120.5 87 -228t212 -107.5t211 107.5t86 228t-86 227t-211 106.5t-212 -106.5t-87 -227zM311 1061q0 12 34 47t48 35l144 -185 l-21 -20z" />
<glyph unicode="&#xf3;" horiz-adv-x="860" d="M41 409.5q0 159.5 112.5 284.5t276.5 125t276.5 -125t112.5 -284.5t-112.5 -284.5t-276.5 -125t-276.5 125t-112.5 284.5zM131 409.5q0 -120.5 87 -228t212 -107.5t211 107.5t86 228t-86 227t-211 106.5t-212 -106.5t-87 -227zM311 956l144 185q14 0 48 -35t34 -47 l-205 -123z" />
<glyph unicode="&#xf4;" horiz-adv-x="860" d="M41 409.5q0 159.5 112.5 284.5t276.5 125t276.5 -125t112.5 -284.5t-112.5 -284.5t-276.5 -125t-276.5 125t-112.5 284.5zM131 409.5q0 -120.5 87 -228t212 -107.5t211 107.5t86 228t-86 227t-211 106.5t-212 -106.5t-87 -227zM240 918l184 188l184 -184l-20 -21 q-123 82 -164 123q-41 -41 -164 -123z" />
<glyph unicode="&#xf5;" horiz-adv-x="860" d="M41 409.5q0 159.5 112.5 284.5t276.5 125t276.5 -125t112.5 -284.5t-112.5 -284.5t-276.5 -125t-276.5 125t-112.5 284.5zM131 409.5q0 -120.5 87 -228t212 -107.5t211 107.5t86 228t-86 227t-211 106.5t-212 -106.5t-87 -227zM164 1010q0 12 47 59q63 63 131 64 q57 0 111 -54q29 -29 53 -28q31 0 62.5 28.5t45.5 53.5l70 -41q0 -12 -47 -60q-63 -63 -131 -63q-57 0 -111 53q-29 29 -53 29q-31 0 -62.5 -29t-46.5 -53z" />
<glyph unicode="&#xf6;" horiz-adv-x="860" d="M41 409.5q0 159.5 112.5 284.5t276.5 125t276.5 -125t112.5 -284.5t-112.5 -284.5t-276.5 -125t-276.5 125t-112.5 284.5zM131 409.5q0 -120.5 87 -228t212 -107.5t211 107.5t86 228t-86 227t-211 106.5t-212 -106.5t-87 -227zM268 1024q0 18 14.5 32.5t30.5 14.5 q18 0 32.5 -14.5t14.5 -32.5q0 -16 -14 -30.5t-33 -14.5q-16 0 -30.5 14.5t-14.5 30.5zM489 1024q0 18 14.5 32.5t31.5 14.5q18 0 32.5 -14.5t14.5 -32.5q0 -16 -14.5 -30.5t-32.5 -14.5q-16 0 -31 14.5t-15 30.5z" />
<glyph unicode="&#xf7;" horiz-adv-x="614" d="M41 530v82h532v-82h-532zM246 366.5q0 26.5 17.5 44t44 17.5t44 -17.5t17.5 -44t-17.5 -44t-44 -17.5t-44 17.5t-17.5 44zM246 776.5q0 26.5 17.5 44t44 17.5t44 -17.5t17.5 -44t-17.5 -44t-44 -17.5t-44 17.5t-17.5 44z" />
<glyph unicode="&#xf8;" horiz-adv-x="860" d="M41 410q0 160 112.5 284.5t276.5 124.5q66 0 133 -26l31 65h94l-49 -106q82 -57 131 -149.5t49 -192.5q0 -160 -112.5 -285t-276.5 -125q-68 0 -131 23l-25 -54h-96l45 94q-84 57 -133 151t-49 196zM131 410q0 -72 35 -146t92 -125l272 582q-49 23 -100 22 q-125 0 -212 -106t-87 -227zM332 94q51 -20 98 -20q125 0 211 107.5t86 228.5q0 72 -34 143.5t-91 122.5z" />
<glyph unicode="&#xf9;" horiz-adv-x="706" d="M51 287v532h82v-532q0 -31 6 -59.5t23.5 -64.5t57.5 -58.5t97 -22.5q119 0 182.5 71.5t63.5 139.5v526h82v-821h-82v145q-27 -57 -94.5 -100t-151.5 -43q-139 0 -202.5 87t-63.5 200zM240 1061q0 12 33.5 47t48.5 35l143 -185l-21 -20z" />
<glyph unicode="&#xfa;" horiz-adv-x="706" d="M51 287v532h82v-532q0 -31 6 -59.5t23.5 -64.5t57.5 -58.5t97 -22.5q119 0 182.5 71.5t63.5 139.5v526h82v-821h-82v145q-27 -57 -94.5 -100t-151.5 -43q-139 0 -202.5 87t-63.5 200zM240 956l143 185q14 0 48 -35t34 -47l-205 -123z" />
<glyph unicode="&#xfb;" horiz-adv-x="706" d="M51 287v532h82v-532q0 -31 6 -59.5t23.5 -64.5t57.5 -58.5t97 -22.5q119 0 182.5 71.5t63.5 139.5v526h82v-821h-82v145q-27 -57 -94.5 -100t-151.5 -43q-139 0 -202.5 87t-63.5 200zM168 918l184 188l185 -184l-21 -21q-123 82 -164 123q-41 -41 -164 -123z" />
<glyph unicode="&#xfc;" horiz-adv-x="706" d="M51 287v532h82v-532q0 -31 6 -59.5t23.5 -64.5t57.5 -58.5t97 -22.5q119 0 182.5 71.5t63.5 139.5v526h82v-821h-82v145q-27 -57 -94.5 -100t-151.5 -43q-139 0 -202.5 87t-63.5 200zM197 1024q0 18 14 32.5t31 14.5q18 0 32.5 -14.5t14.5 -32.5q0 -16 -14.5 -30.5 t-32.5 -14.5q-16 0 -30.5 14.5t-14.5 30.5zM418 1024q0 18 14 32.5t31 14.5q18 0 32.5 -14.5t14.5 -32.5q0 -16 -14.5 -30.5t-32.5 -14.5q-16 0 -30.5 14.5t-14.5 30.5z" />
<glyph unicode="&#xfd;" horiz-adv-x="808" d="M-20 -614q29 51 166 336.5t186 394.5l-271 702h82l236 -622l297 622h82l-697 -1433h-81zM291 956l143 185q14 0 48 -35t34 -47l-205 -123z" />
<glyph unicode="&#xff;" horiz-adv-x="808" d="M-20 -614q29 51 166 336.5t186 394.5l-271 702h82l236 -622l297 622h82l-697 -1433h-81zM248 1024q0 18 14 32.5t31 14.5q18 0 32.5 -14.5t14.5 -32.5q0 -16 -14.5 -30.5t-32.5 -14.5q-16 0 -30.5 14.5t-14.5 30.5zM469 1024q0 18 14.5 32.5t30.5 14.5q18 0 32.5 -14.5 t14.5 -32.5q0 -16 -14.5 -30.5t-32.5 -14.5q-16 0 -30.5 14.5t-14.5 30.5z" />
<glyph unicode="&#x152;" horiz-adv-x="1593" d="M55 612q0 299 166 467t408 168q78 0 143 -14v14h731v-67h-647v-500h608v-68h-608v-567h686v-68h-770v15q-66 -14 -143 -15q-242 0 -408 168t-166 467zM137 612.5q0 -270.5 143.5 -412t348.5 -141.5q70 0 143 17v1073q-74 16 -143 16q-205 0 -348.5 -141t-143.5 -411.5z " />
<glyph unicode="&#x153;" horiz-adv-x="1435" d="M41 409.5q0 161.5 103.5 285.5t265.5 124q106 0 188 -56t129 -151q41 106 125 156.5t188 50.5q127 0 229.5 -96t102.5 -293h-598q0 -68 14.5 -125t45 -109.5t90 -83t141.5 -30.5q127 0 219 115l6 8h82q-4 -8 -10 -22.5t-32.5 -49.5t-58.5 -61.5t-87.5 -49t-118.5 -22.5 q-252 0 -334 215q-45 -96 -129 -155.5t-192 -59.5q-162 0 -265.5 124t-103.5 285.5zM123 410q0 -129 80 -238t207 -109t204.5 109t77.5 238t-77.5 236.5t-204.5 107.5t-207 -108.5t-80 -235.5zM776 500h514q0 102 -67.5 173.5t-196.5 71.5q-125 0 -185.5 -75.5t-64.5 -169.5 z" />
<glyph unicode="&#x178;" horiz-adv-x="946" d="M31 1270h78l364 -598l365 598h77l-403 -684v-586h-78v586zM315 1477q0 18 14.5 32.5t30.5 14.5q18 0 33 -14.5t15 -32.5q0 -16 -14.5 -30.5t-33.5 -14.5q-16 0 -30.5 14.5t-14.5 30.5zM537 1477q0 18 14 32.5t31 14.5q18 0 32.5 -14.5t14.5 -32.5q0 -16 -14.5 -30.5 t-32.5 -14.5q-16 0 -30.5 14.5t-14.5 30.5z" />
<glyph unicode="&#x2c6;" horiz-adv-x="450" d="M41 918l184 188l185 -184l-21 -21q-123 82 -164 123q-41 -41 -164 -123z" />
<glyph unicode="&#x2dc;" horiz-adv-x="602" d="M41 1010q0 12 47 59q63 63 131 64q57 0 111 -54q29 -29 53 -28q31 0 62.5 28.5t46.5 53.5l69 -41q0 -12 -47 -60q-63 -63 -131 -63q-57 0 -111 53q-29 29 -53 29q-31 0 -62.5 -29t-45.5 -53z" />
<glyph unicode="&#x2013;" horiz-adv-x="595" d="M0 532v82h596v-82h-596z" />
<glyph unicode="&#x2014;" horiz-adv-x="1007" d="M0 532v82h1008v-82h-1008z" />
<glyph unicode="&#x2018;" horiz-adv-x="184" d="M41 1262q0 53 51 53t51 -53q0 -33 -24 -41q0 -31 24 -62l-14 -24q-31 16 -59.5 50t-28.5 77z" />
<glyph unicode="&#x2019;" horiz-adv-x="184" d="M41 1149q25 31 25 61q-25 8 -25 41q0 53 51 53.5t51 -53.5q0 -43 -28.5 -76.5t-59.5 -50.5z" />
<glyph unicode="&#x201a;" horiz-adv-x="184" d="M41 -49q25 31 25 61q-25 8 -25 41q0 53 51 53t51 -53q0 -43 -28.5 -76.5t-59.5 -50.5z" />
<glyph unicode="&#x201c;" horiz-adv-x="331" d="M41 1272q0 53 51 53t51 -53q0 -33 -24 -41q0 -31 24 -62l-14 -24q-31 16 -59.5 50t-28.5 77zM188 1272q0 53 51.5 53t51.5 -53q0 -33 -25 -41q0 -31 25 -62l-15 -24q-31 16 -59.5 50t-28.5 77z" />
<glyph unicode="&#x201d;" horiz-adv-x="331" d="M41 1167q25 31 25 62q-25 8 -25 41q0 53 51 53t51 -53q0 -43 -28.5 -77t-59.5 -50zM188 1167q25 31 25 62q-25 8 -25 41q0 53 51.5 53t51.5 -53q0 -43 -29 -77t-59 -50z" />
<glyph unicode="&#x201e;" horiz-adv-x="333" d="M41 -49q25 31 25 61q-25 8 -25 41q0 53 51 53t51 -53q0 -43 -28.5 -76.5t-59.5 -50.5zM190 -49q25 31 25 61q-25 8 -25 41q0 53 51.5 53t51.5 -53q0 -43 -28.5 -76.5t-59.5 -50.5z" />
<glyph unicode="&#x2022;" horiz-adv-x="409" d="M41 714.5q0 67.5 48 116t115.5 48.5t116 -48.5t48.5 -116t-48.5 -115.5t-116 -48t-115.5 48t-48 115.5z" />
<glyph unicode="&#x2026;" horiz-adv-x="608" d="M41 45q0 18 14.5 32.5t30.5 14.5q18 0 32.5 -14.5t14.5 -32.5q0 -16 -14.5 -30.5t-32.5 -14.5q-16 0 -30.5 14.5t-14.5 30.5zM258 45q0 18 14.5 32.5t30.5 14.5q18 0 32.5 -14.5t14.5 -32.5q0 -16 -14 -30.5t-33 -14.5q-16 0 -30.5 14.5t-14.5 30.5zM475 45 q0 18 14.5 32.5t30.5 14.5q18 0 32.5 -14.5t14.5 -32.5q0 -16 -14 -30.5t-33 -14.5q-16 0 -30.5 14.5t-14.5 30.5z" />
<glyph unicode="&#x2039;" horiz-adv-x="430" d="M41 410l307 307l41 -41q-14 -31 -36.5 -75t-83 -117.5t-105.5 -73.5q45 0 101.5 -67t90.5 -134l33 -66l-41 -41z" />
<glyph unicode="&#x203a;" horiz-adv-x="430" d="M41 143q14 31 36.5 75t83 118t105.5 74q-45 0 -101 66.5t-91 133.5l-33 66l41 41l307 -307l-307 -308z" />
<glyph unicode="&#x2044;" horiz-adv-x="1105" d="M41 41l956 1393l68 -41l-963 -1393z" />
<glyph unicode="&#x20ac;" horiz-adv-x="1034" d="M41 578v57h123q0 25 4 78h-127v57h133q16 135 64.5 236.5t113 156t131 81t131.5 26.5q141 0 253 -75t112 -175h-78q0 51 -83 111.5t-204 60.5q-133 0 -239.5 -108.5t-128.5 -313.5h246v-57h-246v-78h246v-57h-246q6 -252 112.5 -376t255.5 -124q129 0 208 67.5t79 122.5 h82q0 -88 -97.5 -178t-250.5 -90q-72 0 -133.5 14.5t-124 54.5t-106.5 103.5t-73.5 166.5t-33.5 239h-123z" />
<glyph unicode="&#x2122;" horiz-adv-x="520" d="M41 1253v17h88h14h88v-17h-88v-229h-14v229h-88zM254 1024v246h14l101 -223l94 223h16v-246h-16v211l-86 -211h-15l-94 211v-211h-14z" />
<glyph unicode="&#xe000;" horiz-adv-x="820" d="M0 820h820v-820h-820v820z" />
<glyph unicode="&#xfb01;" horiz-adv-x="751" d="M579 1062.5q0 20.5 17.5 38t38.5 17.5q23 0 39 -16.5t16 -38.5q0 -20 -17.5 -37.5t-38 -17.5t-38 17t-17.5 37.5zM592 4h82v815h-82v-815zM20 737v82h144v328q0 41 7 81t29.5 91t77 83t132.5 32q137 0 200 -82l-63 -58q-37 57 -137 58q-164 0 -164 -205v-328h225v-82 h-225v-737h-82v737h-144z" />
<glyph unicode="&#xfb02;" horiz-adv-x="722" d="M579 0v1434h82v-1434h-82zM20 737v82h144v328q0 41 7 81t29.5 91t77 83t132.5 32q137 0 200 -82l-63 -58q-37 57 -137 58q-164 0 -164 -205v-328h225v-82h-225v-737h-82v737h-144z" />
<glyph unicode="&#xfb03;" horiz-adv-x="1269" d="M1097 1062.5q0 20.5 17.5 38t38.5 17.5q23 0 39 -16.5t16 -38.5q0 -20 -17.5 -37.5t-38 -17.5t-38 17t-17.5 37.5zM1110 4h82v815h-82v-815zM538 737v82h144v328q0 41 7 81t29.5 91t77 83t132.5 32q137 0 200 -82l-63 -58q-37 57 -137 58q-164 0 -164 -205v-328h225v-82 h-225v-737h-82v737h-144zM20 737v82h144v328q0 41 7 81t29.5 91t77 83t132.5 32q137 0 200 -82l-63 -58q-37 57 -137 58q-164 0 -164 -205v-328h225v-82h-225v-737h-82v737h-144z" />
<glyph unicode="&#xfb04;" horiz-adv-x="1241" d="M1097 0v1434h82v-1434h-82zM538 737v82h144v328q0 41 7 81t29.5 91t77 83t132.5 32q137 0 200 -82l-63 -58q-37 57 -137 58q-164 0 -164 -205v-328h225v-82h-225v-737h-82v737h-144zM20 737v82h144v328q0 41 7 81t29.5 91t77 83t132.5 32q137 0 200 -82l-63 -58 q-37 57 -137 58q-164 0 -164 -205v-328h225v-82h-225v-737h-82v737h-144z" />
</font>
</defs>
</svg>
